<svg width="24" height="18" viewBox="0 0 24 18" fill="none" xmlns="http://www.w3.org/2000/svg">
<path d="M22.8291 4.16474C22.8291 4.16474 22.604 2.51816 21.9104 1.79516C21.0322 0.843599 20.0504 0.838935 19.6 0.78296C16.3754 0.540405 11.5339 0.540405 11.5339 0.540405H11.5249C11.5249 0.540405 6.68346 0.540405 3.45882 0.78296C3.00846 0.838935 2.02665 0.843599 1.14844 1.79516C0.454871 2.51816 0.234191 4.16474 0.234191 4.16474C0.234191 4.16474 0 6.10052 0 8.03163V9.84146C0 11.7726 0.229687 13.7084 0.229687 13.7084C0.229687 13.7084 0.454871 15.3549 1.14393 16.0779C2.02215 17.0295 3.17509 16.9968 3.68851 17.0995C5.53502 17.2814 11.5294 17.3374 11.5294 17.3374C11.5294 17.3374 16.3754 17.328 19.6 17.0901C20.0504 17.0342 21.0322 17.0295 21.9104 16.0779C22.604 15.3549 22.8291 13.7084 22.8291 13.7084C22.8291 13.7084 23.0588 11.7772 23.0588 9.84146V8.03163C23.0588 6.10052 22.8291 4.16474 22.8291 4.16474ZM9.14697 12.0385V5.32621L15.3756 8.69399L9.14697 12.0385Z" fill="#373334"/>
</svg>
