<svg width="25" height="24" viewBox="0 0 25 24" fill="none" xmlns="http://www.w3.org/2000/svg">
<g clip-path="url(#clip0)">
<ellipse cx="12.4706" cy="11.9412" rx="12.3529" ry="11.9412" fill="#373334"/>
<path d="M15.2014 18.8847L14.494 19.0762C13.1036 19.6765 11.5514 19.8488 10.0434 19.5704C9.76436 19.533 9.50452 19.4067 9.30477 19.2114C9.16429 19.0491 9.06558 18.857 9.01696 18.6512C8.96833 18.4455 8.97124 18.2322 9.02542 18.0294C9.08714 17.744 9.25444 17.492 9.49586 17.3207C9.73728 17.1495 10.0362 17.0708 10.3364 17.0995C10.7297 17.1008 11.1057 17.1667 11.4989 17.168C12.3522 17.1322 13.1884 16.941 13.9642 16.6044C15.1377 16.1363 16.1552 15.3685 16.9103 14.3814C17.1578 14.0313 17.373 13.6604 17.5535 13.2729C17.711 12.92 17.9777 12.6247 18.317 12.4273C18.527 12.3152 18.7671 12.2657 19.0078 12.285C19.2485 12.3042 19.4793 12.3914 19.6716 12.5357C19.8079 12.6138 19.9272 12.717 20.0228 12.8395C20.1184 12.962 20.1883 13.1014 20.2285 13.2494C20.2686 13.3975 20.2783 13.5514 20.2568 13.7022C20.2353 13.8529 20.1832 13.9976 20.1034 14.1277C19.8536 14.848 19.4797 15.5202 18.9976 16.1161C18.5171 16.6833 17.9717 17.1952 17.3715 17.6423L16.951 17.876L17.1679 17.957L22.3321 19.3378C22.5904 19.3914 22.8252 19.5245 23.0014 19.7172C23.1776 19.9099 23.2858 20.1517 23.3098 20.4067C23.3451 20.6628 23.3038 20.9222 23.1909 21.1539C23.078 21.3856 22.8983 21.5797 22.6732 21.713C22.5409 21.7852 22.3945 21.8301 22.2428 21.8451C22.0911 21.8601 21.9374 21.8448 21.791 21.8001L18.0761 20.8415L17.6647 20.6853C17.5451 20.6418 17.4891 20.673 17.4544 20.8021L16.9174 22.8042C16.7327 23.493 16.5619 24.1741 16.2988 24.8882C16.2175 25.1707 16.0259 25.4097 15.7644 25.555C15.503 25.7002 15.192 25.7404 14.8971 25.6669C14.5928 25.6078 14.3156 25.4525 14.109 25.2255C13.9849 25.0883 13.8968 24.9241 13.8527 24.7474C13.8086 24.5706 13.8097 24.3868 13.856 24.2119L14.5778 21.5211L15.1717 19.0844L15.2014 18.8847Z" fill="white"/>
<path d="M8.62363 5.951C9.53024 5.44373 10.576 5.21213 11.628 5.28563C12.68 5.35914 13.6907 5.73442 14.5317 6.3638C15.3727 6.99318 16.0059 7.84822 16.3511 8.82026C16.6962 9.79231 16.7375 10.8375 16.4698 11.8229C16.2021 12.8083 15.6375 13.6895 14.8477 14.3545C14.0579 15.0195 13.0786 15.4383 12.0343 15.5575C10.9899 15.6768 9.92765 15.4913 8.98251 15.0244C8.03737 14.5576 7.25202 13.8306 6.72627 12.9358C6.02438 11.7495 5.82995 10.3491 6.18544 9.0404C6.54093 7.73172 7.41746 6.62108 8.62363 5.951ZM9.03154 11.6734C9.28961 12.1156 9.67555 12.4758 10.1407 12.7086C10.6058 12.9413 11.1293 13.0361 11.6451 12.9811C12.161 12.9261 12.646 12.7237 13.0392 12.3994C13.4323 12.0751 13.7159 11.6435 13.8541 11.159C13.9924 10.6744 13.9791 10.1587 13.8161 9.67681C13.653 9.19491 13.3474 8.76844 12.9378 8.45118C12.5282 8.13391 12.0329 7.94007 11.5145 7.8941C10.9961 7.84813 10.4777 7.95208 10.0247 8.19285C9.72229 8.35359 9.45655 8.57135 9.24278 8.83359C9.02902 9.09583 8.87144 9.39737 8.77914 9.72086C8.68683 10.0443 8.66161 10.3834 8.70493 10.7185C8.74824 11.0536 8.85924 11.3781 9.03154 11.6734Z" fill="white"/>
</g>
<defs>
<clipPath id="clip0">
<rect width="24.7059" height="23.8824" fill="white" transform="translate(0.117676)"/>
</clipPath>
</defs>
</svg>
