<svg width="29" height="28" viewBox="0 0 29 28" fill="none" xmlns="http://www.w3.org/2000/svg">
<path d="M17.0901 10.5609C17.0901 11.2694 17.0624 11.9372 17.0584 12.5969C17.0498 12.9567 17.0912 13.316 17.1814 13.6638C17.236 13.8858 17.3583 14.0841 17.5304 14.2298C17.573 14.2641 17.6228 14.2876 17.6759 14.2982C17.729 14.3088 17.7839 14.3063 17.8358 14.2909C18.0211 14.2302 18.1906 14.1271 18.3316 13.9896C18.6707 13.6687 18.9765 13.3125 19.2439 12.9268C20.1924 11.5787 20.9745 10.1152 21.5722 8.56963C21.6793 8.30902 21.7824 8.05248 21.8816 7.78779C21.9525 7.58549 22.0938 7.41726 22.2783 7.31543C22.3937 7.27179 22.5162 7.25107 22.6392 7.25435C22.6947 7.25435 22.7542 7.25435 22.8137 7.25435H26.7802C27.0499 7.25435 27.3196 7.25435 27.5735 7.25435C27.7099 7.27239 27.8433 7.30937 27.9701 7.36429C28.0729 7.39511 28.1628 7.46035 28.2253 7.54964C28.2878 7.63893 28.3195 7.74713 28.3152 7.85702C28.3152 8.13658 28.2613 8.41337 28.1565 8.67143C27.8906 9.33251 27.5554 9.96195 27.157 10.5487C26.4153 11.7133 25.5704 12.8005 24.7771 13.9122C24.5114 14.2828 24.2615 14.6655 24.0235 15.0524C23.8826 15.2665 23.8181 15.524 23.841 15.7813C23.8749 16.0305 23.9862 16.2619 24.1583 16.441C24.4479 16.7586 24.7414 17.0721 25.0508 17.3694C25.8797 18.129 26.6576 18.9453 27.3791 19.8127C27.7155 20.2244 28.0055 20.6738 28.2438 21.1524C28.3023 21.2815 28.3424 21.4187 28.3628 21.5596C28.3987 21.7154 28.3844 21.8789 28.3222 22.0257C28.26 22.1725 28.1532 22.2947 28.0177 22.374C27.7526 22.546 27.4467 22.6403 27.1332 22.6468C25.9631 22.6794 24.793 22.6713 23.6268 22.7405C22.8768 22.778 22.1414 22.5185 21.5722 22.0157C21.1424 21.6529 20.7442 21.2523 20.3823 20.8185C19.9856 20.3746 19.6168 19.9267 19.1924 19.5032C19.012 19.3214 18.8078 19.1665 18.5855 19.043C18.443 18.9535 18.274 18.919 18.109 18.9459C17.9439 18.9728 17.7936 19.0592 17.6851 19.1896C17.4887 19.4327 17.3513 19.7202 17.2845 20.0285C17.1573 20.4984 17.0867 20.9825 17.0743 21.47C17.0683 21.5913 17.0564 21.7123 17.0386 21.8324C17.0163 21.9864 16.9524 22.131 16.8543 22.2497C16.7562 22.3684 16.6277 22.4566 16.4833 22.5043C16.291 22.5869 16.0848 22.6298 15.8764 22.6305C15.3528 22.6305 14.8293 22.6305 14.2898 22.6305C13.3657 22.6196 12.4509 22.4389 11.5887 22.0971C10.0318 21.495 8.63875 20.5173 7.52704 19.2466C6.42384 18.0006 5.44085 16.6478 4.59187 15.2071C3.24717 12.969 2.05441 10.6383 1.02207 8.23165C0.954688 8.0729 0.928716 7.89888 0.946705 7.72671C0.950514 7.66234 0.971366 7.60025 1.00701 7.54715C1.04266 7.49405 1.09175 7.45194 1.14899 7.42537C1.34458 7.32399 1.56056 7.27099 1.77966 7.27064H5.72231C5.95611 7.28689 6.18028 7.37251 6.36758 7.51709C6.55488 7.66167 6.69724 7.85898 6.77738 8.08505C7.11793 9.00934 7.5277 9.90516 8.00301 10.7645C8.51761 11.7211 9.0968 12.6396 9.73635 13.5131C9.9533 13.8363 10.2214 14.1198 10.5296 14.352C10.6278 14.4362 10.7483 14.4882 10.8756 14.5013C11.0029 14.5144 11.1311 14.4879 11.2436 14.4253C11.3666 14.3497 11.4626 14.2355 11.5173 14.0995C11.6613 13.7598 11.7498 13.3979 11.7791 13.0286C11.8657 12.1682 11.8829 11.302 11.8306 10.4387C11.821 9.92345 11.7692 9.40993 11.6759 8.90354C11.6521 8.77731 11.6085 8.65514 11.5847 8.52891C11.5561 8.41152 11.503 8.30191 11.429 8.20769C11.355 8.11347 11.262 8.03689 11.1563 7.98325C10.8841 7.80951 10.5754 7.70482 10.256 7.67784C10.1647 7.67784 10.133 7.62898 10.1727 7.54754C10.2066 7.46647 10.2521 7.391 10.3075 7.32357C10.5976 6.9997 10.9893 6.79072 11.4142 6.73312C12.0297 6.62467 12.654 6.57694 13.2784 6.5906C13.9725 6.5906 14.6706 6.5906 15.3687 6.63539C15.6716 6.65511 15.9719 6.70558 16.2651 6.78606C16.4986 6.8337 16.7096 6.96102 16.8637 7.14732C17.0178 7.33362 17.106 7.56795 17.1139 7.81222C17.1477 8.20484 17.1596 8.59912 17.1496 8.99313C17.1417 9.52657 17.11 10.0641 17.0901 10.5609Z" fill="#373334"/>
</svg>
