<svg width="24" height="24" viewBox="0 0 24 24" fill="none" xmlns="http://www.w3.org/2000/svg">
<g clip-path="url(#clip0)">
<path d="M23.9412 11.9412C23.9412 5.34624 18.5949 0 12 0C5.40508 0 0.0588379 5.34624 0.0588379 11.9412C0.0588379 17.9013 4.42553 22.8415 10.1342 23.7373V15.3929H7.10227V11.9412H10.1342V9.31039C10.1342 6.31763 11.917 4.66452 14.6446 4.66452C15.9506 4.66452 17.3176 4.89775 17.3176 4.89775V7.8364H15.8119C14.3285 7.8364 13.8658 8.75694 13.8658 9.70221V11.9412H17.1776L16.6482 15.3929H13.8658V23.7373C19.5745 22.8415 23.9412 17.9013 23.9412 11.9412Z" fill="#373334"/>
</g>
<defs>
<clipPath id="clip0">
<rect width="23.8824" height="23.8824" fill="white" transform="translate(0.0588379)"/>
</clipPath>
</defs>
</svg>
