<svg width="24" height="23" viewBox="0 0 24 23" fill="none" xmlns="http://www.w3.org/2000/svg">
<path d="M23.8231 11.4991C23.8231 13.1599 23.8231 14.8206 23.8231 16.4814C23.8117 17.7824 23.4065 19.0496 22.661 20.116C21.9155 21.1824 20.8645 21.9982 19.6464 22.456C18.6102 22.8428 17.5092 23.0264 16.4035 22.9969C13.5226 22.9969 10.6416 22.9969 7.76059 22.9969C6.36643 23.0289 4.99538 22.6372 3.82853 21.8737C2.41867 21.0009 1.40487 19.6128 1.00269 18.0043C0.88712 17.513 0.827011 17.0102 0.823486 16.5055C0.823486 13.2322 0.823486 9.95895 0.823486 6.66844C0.823486 4.98011 1.29561 3.46407 2.49832 2.24089C3.63449 1.01475 5.17768 0.243295 6.84047 0.0701928C7.87431 -0.0228373 8.90816 0.00472719 9.92133 0.00128163C12.12 0.00128163 14.3221 0.00128163 16.5242 0.00128163C18.0163 0.00128163 19.4499 0.242471 20.725 1.0694C22.1392 1.9138 23.1726 3.27163 23.6094 4.85952C23.7414 5.40101 23.8096 5.95606 23.8128 6.51339C23.8369 8.17415 23.8128 9.83491 23.8128 11.4957L23.8231 11.4991ZM2.54656 11.4991C2.54656 13.1771 2.54656 14.8516 2.54656 16.5296C2.54656 18.4764 3.58041 19.796 5.23456 20.6987C6.03884 21.1044 6.93272 21.3 7.83296 21.2673C10.8001 21.2673 13.7672 21.2673 16.7344 21.2673C17.7654 21.2851 18.7821 21.0244 19.6774 20.5127C21.235 19.61 22.0897 18.28 22.0897 16.4711C22.1104 13.1116 22.1173 9.75221 22.0897 6.38935C22.0897 4.40126 20.9628 3.0885 19.2638 2.21678C18.4995 1.85424 17.659 1.68166 16.8136 1.71372C13.8637 1.71372 10.9138 1.71372 7.96047 1.71372C7.01509 1.68896 6.07803 1.89598 5.23111 2.3167C3.58041 3.17464 2.58447 4.51152 2.54656 6.4238C2.50521 8.11557 2.54656 9.80734 2.54656 11.4991Z" fill="#373334"/>
<path d="M2.54656 11.4991V16.5296C2.54656 18.4764 3.58041 19.796 5.23456 20.6987C6.03884 21.1044 6.93272 21.3 7.83296 21.2673H16.7344C17.7654 21.2851 18.7821 21.0244 19.6774 20.5127C21.235 19.61 22.0897 18.28 22.0897 16.4711C22.1104 13.1116 22.1173 9.75221 22.0897 6.38935C22.0897 4.40126 20.9628 3.0885 19.2638 2.21678C18.4995 1.85424 17.659 1.68166 16.8136 1.71372H7.96047C7.01509 1.68896 6.07803 1.89598 5.23111 2.3167C3.58041 3.17464 2.58447 4.51152 2.54656 6.4238C2.50521 8.11557 2.54656 9.80734 2.54656 11.4991Z" fill="#373334"/>
<path d="M12.3335 16.4124C11.2821 16.3968 10.2589 16.0707 9.39246 15.4751C8.52602 14.8795 7.85507 14.0411 7.46401 13.0652C7.07294 12.0894 6.97921 11.0197 7.19462 9.99072C7.41003 8.96175 7.92495 8.01944 8.67462 7.28231C9.42429 6.54518 10.3752 6.04616 11.4078 5.84799C12.4404 5.64983 13.5086 5.76139 14.4779 6.16863C15.4473 6.57587 16.2746 7.26061 16.8557 8.13673C17.4368 9.01284 17.7459 10.0412 17.7439 11.0925C17.7276 12.5139 17.1494 13.8711 16.1358 14.8678C15.1221 15.8645 13.7552 16.4198 12.3335 16.4124ZM8.65643 11.0821C8.64274 11.8141 8.84731 12.5335 9.24408 13.1488C9.64085 13.7641 10.2118 14.2473 10.8843 14.537C11.5568 14.8266 12.3002 14.9095 13.02 14.7752C13.7398 14.6408 14.4032 14.2952 14.9258 13.7824C15.4484 13.2697 15.8065 12.613 15.9545 11.896C16.1024 11.179 16.0336 10.4343 15.7566 9.75657C15.4797 9.07888 15.0072 8.49897 14.3994 8.09073C13.7916 7.6825 13.076 7.46442 12.3438 7.4643C11.3766 7.46056 10.4469 7.83835 9.75661 8.51567C9.06626 9.19299 8.67094 10.1152 8.65643 11.0821Z" fill="white"/>
<path d="M19.5049 5.30386C19.4967 5.52641 19.4232 5.74164 19.2935 5.92268C19.1638 6.10372 18.9836 6.24254 18.7754 6.32182C18.5673 6.4011 18.3404 6.41733 18.1231 6.36847C17.9058 6.31961 17.7077 6.20783 17.5535 6.04709C17.3993 5.88635 17.2959 5.68377 17.2562 5.46464C17.2165 5.2455 17.2422 5.01953 17.3302 4.81492C17.4181 4.61031 17.5644 4.43613 17.7507 4.31414C17.9371 4.19214 18.1552 4.12772 18.378 4.12892C18.6815 4.14053 18.9686 4.26953 19.1789 4.48873C19.3891 4.70792 19.506 5.00017 19.5049 5.30386Z" fill="white"/>
</svg>
