<svg width="15" height="16" viewBox="0 0 15 16" fill="none" xmlns="http://www.w3.org/2000/svg">
<path d="M14.8506 4.79995C14.8506 4.79995 14.7041 3.69683 14.2529 3.21245C13.6816 2.57495 13.043 2.57183 12.75 2.53433C10.6523 2.37183 7.50293 2.37183 7.50293 2.37183H7.49707C7.49707 2.37183 4.34766 2.37183 2.25 2.53433C1.95703 2.57183 1.31836 2.57495 0.74707 3.21245C0.295898 3.69683 0.152344 4.79995 0.152344 4.79995C0.152344 4.79995 0 6.09683 0 7.39058V8.60308C0 9.89683 0.149414 11.1937 0.149414 11.1937C0.149414 11.1937 0.295898 12.2968 0.744141 12.7812C1.31543 13.4187 2.06543 13.3968 2.39941 13.4656C3.60059 13.5875 7.5 13.625 7.5 13.625C7.5 13.625 10.6523 13.6187 12.75 13.4593C13.043 13.4218 13.6816 13.4187 14.2529 12.7812C14.7041 12.2968 14.8506 11.1937 14.8506 11.1937C14.8506 11.1937 15 9.89995 15 8.60308V7.39058C15 6.09683 14.8506 4.79995 14.8506 4.79995ZM5.9502 10.075V5.57808L10.002 7.83433L5.9502 10.075Z" fill="#373334"/>
</svg>
