<svg width="16" height="16" viewBox="0 0 16 16" fill="none" xmlns="http://www.w3.org/2000/svg">
<g clip-path="url(#clip0)">
<circle cx="8" cy="8" r="8" fill="#373334"/>
<path d="M9.76933 12.6591L9.30966 12.7904C8.40515 13.198 7.39778 13.3206 6.42131 13.1417C6.24052 13.118 6.07265 13.0349 5.94408 12.9053C5.85379 12.7976 5.79072 12.6697 5.76021 12.5324C5.72969 12.3952 5.73262 12.2526 5.76876 12.1169C5.81018 11.9259 5.91991 11.7567 6.0773 11.6412C6.23469 11.5256 6.42891 11.4716 6.62346 11.4893C6.87847 11.4884 7.12192 11.5306 7.37693 11.5296C7.93041 11.5017 8.4736 11.37 8.97827 11.1414C9.74156 10.823 10.4051 10.3052 10.8996 9.64209C11.0618 9.40702 11.2032 9.15819 11.3221 8.89843C11.4261 8.66191 11.6004 8.46335 11.8214 8.32984C11.9581 8.25391 12.1141 8.2197 12.27 8.23143C12.426 8.24316 12.5752 8.30032 12.6993 8.39585C12.7872 8.44733 12.8641 8.51575 12.9255 8.59716C12.9869 8.67856 13.0315 8.77132 13.0568 8.87007C13.0822 8.96882 13.0876 9.07158 13.073 9.17242C13.0583 9.27325 13.0238 9.37015 12.9714 9.45749C12.8059 9.93991 12.5601 10.3908 12.2446 10.7912C11.9302 11.1725 11.574 11.5171 11.1827 11.8187L10.9088 11.9768L11.049 12.0299L14.391 12.928C14.5582 12.9626 14.7098 13.0504 14.8231 13.1783C14.9364 13.3062 15.0054 13.4673 15.0197 13.6376C15.0413 13.8085 15.0133 13.9821 14.9389 14.1374C14.8646 14.2927 14.7471 14.4232 14.6004 14.5134C14.5143 14.5622 14.4192 14.593 14.3207 14.6037C14.2223 14.6144 14.1227 14.6049 14.028 14.5758L11.6238 13.9529L11.3578 13.8505C11.2805 13.822 11.244 13.8431 11.2209 13.9295L10.8628 15.2697C10.7396 15.7309 10.6255 16.1867 10.4514 16.6651C10.3973 16.8542 10.2719 17.0149 10.1016 17.1131C9.93134 17.2114 9.72953 17.2397 9.53866 17.1921C9.34157 17.154 9.16259 17.0516 9.02977 16.9009C8.94994 16.8098 8.89368 16.7005 8.86594 16.5826C8.8382 16.4647 8.83984 16.3419 8.87071 16.2249L9.35196 14.4235L9.74908 12.7926L9.76933 12.6591Z" fill="#F2F2F2"/>
<path d="M5.52697 4.00538C6.1178 3.66188 6.79757 3.50206 7.47988 3.54622C8.16219 3.59038 8.81623 3.83653 9.35887 4.25339C9.90152 4.67025 10.3083 5.239 10.5274 5.88734C10.7466 6.53569 10.7683 7.23437 10.5897 7.89457C10.4112 8.55477 10.0404 9.1467 9.52462 9.59511C9.00882 10.0435 8.37125 10.3282 7.69294 10.4129C7.01463 10.4976 6.32621 10.3786 5.71518 10.0709C5.10414 9.76322 4.59808 9.28081 4.26131 8.68497C3.81167 7.89503 3.69239 6.95954 3.92953 6.08277C4.16666 5.206 4.74095 4.45918 5.52697 4.00538ZM5.7635 7.82987C5.92879 8.12437 6.17746 8.36341 6.47816 8.51683C6.77885 8.67025 7.1181 8.73118 7.45311 8.69195C7.78813 8.65271 8.1039 8.51506 8.36061 8.29635C8.61732 8.07765 8.80347 7.78768 8.89558 7.46303C8.98769 7.13838 8.98163 6.79358 8.87818 6.47212C8.77472 6.15066 8.5785 5.86694 8.31426 5.65673C8.05001 5.44653 7.72959 5.31926 7.39339 5.29098C7.05719 5.2627 6.72027 5.33467 6.42514 5.49782C6.2281 5.60674 6.05458 5.75361 5.91456 5.92998C5.77455 6.10634 5.67081 6.30873 5.60932 6.52547C5.54782 6.74222 5.52979 6.96905 5.55625 7.19291C5.58271 7.41678 5.65314 7.63325 5.7635 7.82987Z" fill="#F2F2F2"/>
</g>
<defs>
<clipPath id="clip0">
<rect width="16" height="16" fill="white"/>
</clipPath>
</defs>
</svg>
