<svg width="20" height="20" viewBox="0 0 20 20" fill="none" xmlns="http://www.w3.org/2000/svg">
<g clip-path="url(#clip0)">
<path d="M0 19.6331H20V6.22949H0V19.6331ZM14.8281 8.18382H16.8972V10.2529H14.8281V8.18382ZM14.8281 11.7014H16.8972V13.7705H14.8281V11.7014ZM14.8281 15.219H16.8972V17.288H14.8281V15.219ZM10.9197 8.18382H12.9887V10.2529H10.9197V8.18382ZM10.9197 11.7014H12.9887V13.7705H10.9197V11.7014ZM10.9197 15.219H12.9887V17.288H10.9197V15.219ZM7.01121 8.18382H9.08029V10.2529H7.01121V8.18382ZM7.01121 11.7014H9.08029V13.7705H7.01121V11.7014ZM7.01121 15.219H9.08029V17.288H7.01121V15.219ZM3.10283 8.18382H5.17186V10.2529H3.10283V8.18382ZM3.10283 11.7014H5.17186V13.7705H3.10283V11.7014ZM5.17186 15.219V17.288H3.10283V15.219H5.17186Z" fill="#373334"/>
<path d="M20 1.53955H16.4824V3.88458H15.3099V1.53955H4.69006V3.88458H3.5176V1.53955H0V5.05711H20V1.53955Z" fill="#373334"/>
<path d="M4.69004 0.366943H3.51758V1.5394H4.69004V0.366943Z" fill="#373334"/>
<path d="M16.4823 0.366943H15.3098V1.5394H16.4823V0.366943Z" fill="#373334"/>
</g>
<defs>
<clipPath id="clip0">
<rect width="20" height="20" fill="white"/>
</clipPath>
</defs>
</svg>
