<svg width="13" height="12" viewBox="0 0 13 12" fill="none" xmlns="http://www.w3.org/2000/svg">
<path fill-rule="evenodd" clip-rule="evenodd" d="M6.91994 1.1371C7.04496 1.01211 7.2145 0.941895 7.39128 0.941895C7.56805 0.941895 7.73759 1.01211 7.86261 1.1371L12.5293 5.80399C12.6543 5.92902 12.7245 6.09857 12.7245 6.27535C12.7245 6.45213 12.6543 6.62168 12.5293 6.74671L7.86261 11.4136C7.73687 11.535 7.56847 11.6022 7.39368 11.6007C7.21888 11.5992 7.05167 11.5291 6.92806 11.4055C6.80446 11.2819 6.73435 11.1147 6.73283 10.9398C6.73131 10.765 6.7985 10.5966 6.91994 10.4709L10.4486 6.94205H1.39128C1.21447 6.94205 1.0449 6.87181 0.919871 6.74678C0.794847 6.62175 0.724609 6.45217 0.724609 6.27535C0.724609 6.09853 0.794847 5.92895 0.919871 5.80392C1.0449 5.67889 1.21447 5.60865 1.39128 5.60865H10.4486L6.91994 2.07981C6.79496 1.95478 6.72475 1.78524 6.72475 1.60845C6.72475 1.43167 6.79496 1.26212 6.91994 1.1371Z" fill="#9F0023"/>
</svg>
