<svg width="16" height="17" viewBox="0 0 16 17" fill="none" xmlns="http://www.w3.org/2000/svg">
<mask id="path-1-inside-1" fill="white">
<path d="M11.6071 16.5578C12.3913 16.7679 13.1976 16.7061 13.8777 16.3844C15.2819 15.72 15.7052 14.1402 14.8213 12.8628L7.81221 2.73355C7.2477 1.91688 6.36644 1.31475 5.33223 1.03763C4.29784 0.760473 3.23362 0.84131 2.33636 1.26631C1.43848 1.69096 0.81451 2.40796 0.579364 3.28553C0.344173 4.16327 0.525583 5.09604 1.09081 5.91233L6.60873 13.8854C6.77441 14.1247 7.12163 14.2178 7.38467 14.0933C7.64782 13.9689 7.72677 13.6742 7.56112 13.4348L2.04337 5.46177C1.63834 4.87659 1.50847 4.20816 1.67689 3.57961C1.84528 2.95118 2.29267 2.43703 2.93591 2.13267C3.57926 1.8284 4.34153 1.77033 5.08269 1.96893C5.82371 2.16748 6.45482 2.5989 6.85984 3.18408L13.8688 13.3133C14.4219 14.1132 14.1569 15.1019 13.2781 15.5179C12.426 15.9204 11.2169 15.5964 10.6801 14.8218L5.97366 8.02001C5.84569 7.83507 5.80292 7.61509 5.85607 7.41676C5.90995 7.21567 6.05342 7.05093 6.26001 6.95323C6.6849 6.75223 7.24945 6.90256 7.51668 7.28995L10.7309 11.9354C10.8965 12.1748 11.2438 12.2679 11.5069 12.1433C11.77 12.0189 11.849 11.7242 11.6833 11.4849L8.46918 6.83949C7.87127 5.9755 6.6113 5.6379 5.66046 6.0869C5.19934 6.30496 4.87908 6.67297 4.75857 7.12272C4.63966 7.5665 4.73548 8.05766 5.02116 8.4705L9.72759 15.2724C10.1558 15.891 10.8231 16.3478 11.6071 16.5578Z"/>
</mask>
<path d="M11.6071 16.5578C12.3913 16.7679 13.1976 16.7061 13.8777 16.3844C15.2819 15.72 15.7052 14.1402 14.8213 12.8628L7.81221 2.73355C7.2477 1.91688 6.36644 1.31475 5.33223 1.03763C4.29784 0.760473 3.23362 0.84131 2.33636 1.26631C1.43848 1.69096 0.81451 2.40796 0.579364 3.28553C0.344173 4.16327 0.525583 5.09604 1.09081 5.91233L6.60873 13.8854C6.77441 14.1247 7.12163 14.2178 7.38467 14.0933C7.64782 13.9689 7.72677 13.6742 7.56112 13.4348L2.04337 5.46177C1.63834 4.87659 1.50847 4.20816 1.67689 3.57961C1.84528 2.95118 2.29267 2.43703 2.93591 2.13267C3.57926 1.8284 4.34153 1.77033 5.08269 1.96893C5.82371 2.16748 6.45482 2.5989 6.85984 3.18408L13.8688 13.3133C14.4219 14.1132 14.1569 15.1019 13.2781 15.5179C12.426 15.9204 11.2169 15.5964 10.6801 14.8218L5.97366 8.02001C5.84569 7.83507 5.80292 7.61509 5.85607 7.41676C5.90995 7.21567 6.05342 7.05093 6.26001 6.95323C6.6849 6.75223 7.24945 6.90256 7.51668 7.28995L10.7309 11.9354C10.8965 12.1748 11.2438 12.2679 11.5069 12.1433C11.77 12.0189 11.849 11.7242 11.6833 11.4849L8.46918 6.83949C7.87127 5.9755 6.6113 5.6379 5.66046 6.0869C5.19934 6.30496 4.87908 6.67297 4.75857 7.12272C4.63966 7.5665 4.73548 8.05766 5.02116 8.4705L9.72759 15.2724C10.1558 15.891 10.8231 16.3478 11.6071 16.5578Z" fill="white" stroke="white" stroke-width="2" mask="url(#path-1-inside-1)"/>
</svg>
