<svg width="13" height="12" viewBox="0 0 13 12" fill="none" xmlns="http://www.w3.org/2000/svg">
<path fill-rule="evenodd" clip-rule="evenodd" d="M6.07894 1.1371C6.20392 1.26212 6.27413 1.43167 6.27413 1.60845C6.27413 1.78524 6.20392 1.95478 6.07894 2.07981L2.55027 5.60865H11.6076C11.7844 5.60865 11.954 5.67889 12.079 5.80392C12.204 5.92895 12.2743 6.09853 12.2743 6.27535C12.2743 6.45217 12.204 6.62175 12.079 6.74678C11.954 6.87181 11.7844 6.94205 11.6076 6.94205H2.55027L6.07894 10.4709C6.20038 10.5966 6.26757 10.765 6.26605 10.9398C6.26453 11.1147 6.19442 11.2819 6.07082 11.4055C5.94721 11.5291 5.78 11.5992 5.60521 11.6007C5.43041 11.6022 5.26201 11.535 5.13627 11.4136L0.469605 6.74671C0.344624 6.62168 0.274414 6.45213 0.274414 6.27535C0.274414 6.09857 0.344624 5.92902 0.469605 5.80399L5.13627 1.1371C5.26129 1.01211 5.43083 0.941895 5.6076 0.941895C5.78438 0.941895 5.95392 1.01211 6.07894 1.1371Z" fill="#9F0023"/>
</svg>
